HIERARCHY
ROOT Hips
{
	OFFSET 0.00000 0.00000 0.00000
	CHANNELS 6 Xposition Yposition Zposition Zrotation Yrotation Xrotation 
	JOINT LHipJoint
	{
		OFFSET 0 0 0
		CHANNELS 3 Zrotation Yrotation Xrotation
		JOINT LeftHip
		{
			OFFSET 1.48831 -1.59570 0.95625
			CHANNELS 3 Zrotation Yrotation Xrotation
			JOINT LeftKnee
			{
				OFFSET 2.20856 -6.06797 0.00000
				CHANNELS 3 Zrotation Yrotation Xrotation
				JOINT LeftAnkle
				{
					OFFSET 2.62924 -7.22379 0.00000
					CHANNELS 3 Zrotation Yrotation Xrotation
					JOINT LeftToe
					{
						OFFSET 0.16802 -0.46163 2.41673
						CHANNELS 3 Zrotation Yrotation Xrotation
						End Site
						{
							OFFSET 0.00000 -0.00000 1.23760
						}
					}
				}
			}
		}
	}
	JOINT RHipJoint
	{
		OFFSET 0 0 0
		CHANNELS 3 Zrotation Yrotation Xrotation
		JOINT RightHip
		{
			OFFSET -1.56796 -1.59570 0.95625
			CHANNELS 3 Zrotation Yrotation Xrotation
			JOINT RightKnee
			{
				OFFSET -2.29239 -6.29829 0.00000
				CHANNELS 3 Zrotation Yrotation Xrotation
				JOINT RightAnkle
				{
					OFFSET -2.66963 -7.33475 0.00000
					CHANNELS 3 Zrotation Yrotation Xrotation
					JOINT RightToe
					{
						OFFSET -0.18185 -0.49964 2.34359
						CHANNELS 3 Zrotation Yrotation Xrotation
						End Site
						{
							OFFSET -0.00000 -0.00000 1.20477
						}
					}
				}
			}
		}
	}
	JOINT lowerback
	{
		OFFSET 0 0 0
		CHANNELS 3 Zrotation Yrotation Xrotation
		JOINT Chest
		{
			OFFSET 0.03505 2.15832 -0.34324
			CHANNELS 3 Zrotation Yrotation Xrotation
			JOINT Chest2
			{
				OFFSET -0.01089 2.17963 0.04689
				CHANNELS 3 Zrotation Yrotation Xrotation
				JOINT lowerneck
				{
					OFFSET 0 0 0
					CHANNELS 3 Zrotation Yrotation Xrotation
					JOINT Neck
					{
						OFFSET 0.04686 1.69404 0.22159
						CHANNELS 3 Zrotation Yrotation Xrotation
						JOINT Head
						{
							OFFSET 0.00265 1.69305 -0.01513
							CHANNELS 3 Zrotation Yrotation Xrotation
							End Site
							{
								OFFSET -0.00415 1.80215 -0.03034
							}
						}
					}
				}
				JOINT LeftCollar
				{
					OFFSET 0 0 0
					CHANNELS 3 Zrotation Yrotation Xrotation
					JOINT LeftShoulder
					{
						OFFSET 3.67184 1.11724 -0.19002
CHANNELS 3 Zrotation Xrotation Yrotation
						JOINT LeftElbow
						{
OFFSET 0 -5.177140 -0.000000
CHANNELS 3 Zrotation Xrotation Yrotation
							JOINT LeftWrist
							{
OFFSET 0 -3.436790 -0.000000
CHANNELS 3 Zrotation Xrotation Yrotation
								JOINT lhand
								{
									OFFSET 0 0 0
CHANNELS 3 Zrotation Xrotation Yrotation
									JOINT LFingers
									{
OFFSET 0 -0.573120 -0.000000
CHANNELS 3 Zrotation Xrotation Yrotation
										End Site
										{
OFFSET 0 -0.462060 -0.000000
										}
									}
								}
								JOINT LThumb
								{
OFFSET 0 0.000000 0.000000
CHANNELS 3 Zrotation Xrotation Yrotation
									End Site
									{
OFFSET 0 -0.469120 0.469120
									}
								}
							}
						}
					}
				}
				JOINT RightCollar
				{
					OFFSET 0 0 0
					CHANNELS 3 Zrotation Yrotation Xrotation
					JOINT RightShoulder
					{
						OFFSET -3.59596 0.95831 -0.26050
CHANNELS 3 Zrotation Xrotation Yrotation
						JOINT RightElbow
						{
OFFSET 0 -5.239080 -0.000000
CHANNELS 3 Zrotation Xrotation Yrotation
							JOINT RightWrist
							{
OFFSET 0 -3.464850 -0.000000
CHANNELS 3 Zrotation Xrotation Yrotation
								JOINT rhand
								{
									OFFSET 0 0 0
CHANNELS 3 Zrotation Xrotation Yrotation
									JOINT RFingers
									{
OFFSET 0 -0.608750 -0.000000
CHANNELS 3 Zrotation Xrotation Yrotation
										End Site
										{
OFFSET 0 -0.490790 -0.000000
										}
									}
								}
								JOINT RThumb
								{
OFFSET 0 0.000000 0.000000
CHANNELS 3 Zrotation Xrotation Yrotation
									End Site
									{
OFFSET 0 -0.498290 0.498290
									}
								}
							}
						}
					}
				}
			}
		}
	}
}
MOTION
Frames: 11
Frame Time: 0.008333333333333333
5.108100 16.344100 -4.795500 -82.580500 -87.386600 79.421200 0.000000 0.000000 0.000000 -17.220700 4.629800 -3.202200 1.816400 8.472800 24.159500 1.397200 6.226900 -25.352400 0.000700 0.173100 0.475500 0.000000 0.000000 0.000000 21.784800 5.434600 -9.096000 -3.898200 -12.023700 35.815800 -1.925100 -7.357100 -29.704900 -0.000100 -0.048800 0.134000 2.354600 -0.137400 -0.609800 0.311500 -0.398200 5.515900 -1.022500 -0.133500 6.049500 3.432100 2.399700 1.556400 -1.432800 2.794100 18.409900 -0.926400 1.280300 5.359300 -0.000000 0.000000 0.000000 2.901200 -3.537600 -14.280400 14.311400 -23.178100 2.949500 15.672900 -23.440600 -7.807400 0.000000 0.000000 0.000000 -7.125000 0.000000 0.000000 -9.544400 37.925400 -1.680700 -0.000000 0.000000 0.000000 -0.413700 -1.253700 12.145700 -15.691900 -25.101100 -3.514200 -20.622900 4.539200 9.197400 0.000000 0.000000 0.000000 7.125000 0.000000 -0.000000 5.521000 39.736900 0.718700
5.110841 16.344247 -4.775132 -88.688458 -87.505642 85.565104 0.000000 0.000000 0.000000 -17.445508 4.639858 -3.112751 1.794100 8.423288 24.007376 1.397287 6.461358 -25.499309 0.001100 0.217841 0.598438 0.000000 0.000000 0.000000 21.581888 5.517063 -9.184844 -3.911012 -12.041024 35.877183 -1.916625 -7.211146 -29.563312 0.000000 -0.024508 0.067453 2.325195 -0.161185 -0.702817 0.279532 -0.428460 5.497830 -1.041476 -0.148298 6.082519 3.435358 2.455360 1.684340 -1.443413 2.870435 18.374653 -0.928544 1.315721 5.329161 0.000000 0.000000 0.000000 2.868430 -3.685528 -13.884719 13.735017 -22.354599 2.726562 15.803392 -23.589484 -6.092895 0.000000 0.000000 0.000000 -7.125000 0.000000 0.000000 -9.167200 36.179271 -2.008878 0.000000 0.000000 0.000000 -0.395958 -1.342304 11.898755 -15.526837 -24.874885 -3.444467 -20.536138 4.834558 9.351450 0.000000 0.000000 0.000000 7.125000 0.000000 0.000000 5.617849 39.892696 0.709802
5.109871 16.342947 -4.759598 -96.527898 -87.381319 93.362012 0.000000 0.000000 0.000000 -17.404932 4.683323 -3.057228 1.802713 8.442474 24.066170 1.417487 6.616774 -25.748305 0.002076 0.293667 0.806886 0.000000 0.000000 0.000000 21.685884 5.785908 -9.074099 -3.904902 -12.032713 35.847882 -1.902732 -7.232283 -29.485895 0.000000 -0.014203 0.039044 2.425869 -0.143147 -0.808698 0.324331 -0.417087 5.555145 -1.051453 -0.137905 6.205187 3.515056 2.528372 1.959408 -1.486844 2.967808 18.430693 -0.954821 1.361578 5.305390 0.000000 0.000000 0.000000 2.843946 -3.721410 -13.507197 13.473564 -21.977118 2.627846 15.439828 -23.225991 -6.107959 0.000000 0.000000 0.000000 -7.125000 0.000000 0.000000 -9.470989 36.174798 -2.077999 0.000000 0.000000 0.000000 -0.381833 -1.368246 11.758128 -15.566101 -24.928847 -3.461028 -20.388572 5.027255 9.573403 0.000000 0.000000 0.000000 7.125000 0.000000 0.000000 5.777838 40.115051 0.698490
5.109200 16.339342 -4.738089 -100.323947 -87.515318 97.102212 0.000000 0.000000 0.000000 -17.657580 4.830273 -2.939076 1.784960 8.403078 23.945326 1.414131 6.694038 -25.771380 0.001900 0.280698 0.771216 0.000000 0.000000 0.000000 21.405864 5.746738 -9.122409 -3.934413 -12.072620 35.989431 -1.900256 -7.070654 -29.373958 0.000000 0.035191 -0.096657 2.306108 -0.166118 -0.855107 0.303986 -0.446607 5.623009 -1.008009 -0.157402 6.303022 3.585602 2.549520 2.041878 -1.497311 2.986678 18.565735 -0.970213 1.370993 5.335827 0.000000 0.000000 0.000000 2.747605 -3.604031 -13.383600 13.411423 -21.887043 2.604616 15.689612 -22.940950 -6.519624 0.000000 0.000000 0.000000 -7.125000 0.000000 0.000000 -9.325418 36.609815 -1.945098 0.000000 0.000000 0.000000 -0.430462 -1.306356 11.727607 -15.640776 -25.031125 -3.492584 -20.402634 4.973532 9.565968 0.000000 0.000000 0.000000 7.125000 0.000000 0.000000 5.764600 40.108348 0.697825
5.105727 16.338647 -4.723211 -103.283684 -87.392619 100.051400 0.000000 0.000000 0.000000 -17.604032 4.898283 -2.976641 1.800053 8.436458 24.047821 1.434105 6.648158 -25.891594 0.002847 0.345646 0.949741 0.000000 0.000000 0.000000 21.483867 5.901782 -9.051799 -3.927984 -12.063979 35.958775 -1.890600 -7.127412 -29.344819 -0.000100 0.052678 -0.144660 2.372798 -0.166074 -0.919848 0.351910 -0.454674 5.634459 -0.996442 -0.158932 6.352625 3.569603 2.482131 2.093273 -1.404068 2.879802 18.556177 -0.943507 1.322361 5.320023 0.000000 0.000000 0.000000 2.699836 -3.470277 -13.209121 13.285439 -21.704027 2.557882 15.602367 -22.827573 -6.342202 0.000000 0.000000 0.000000 -7.125000 0.000000 0.000000 -9.371206 36.423347 -1.998056 0.000000 0.000000 0.000000 -0.433203 -1.268127 11.499629 -15.482683 -24.814224 -3.425962 -20.379932 5.155995 9.641499 0.000000 0.000000 0.000000 7.125000 0.000000 0.000000 5.795332 40.186121 0.690431
5.095493 16.337278 -4.706708 -104.157436 -87.362070 100.919436 0.000000 0.000000 0.000000 -17.632666 4.985881 -2.936456 1.797715 8.431348 24.032045 1.444867 6.581582 -25.929448 0.003141 0.362407 0.995681 0.000000 0.000000 0.000000 21.438530 5.877530 -9.001334 -3.923785 -12.058267 35.938444 -1.891696 -7.078926 -29.323100 -0.000200 0.085951 -0.236195 2.440052 -0.172152 -1.026310 0.371648 -0.466611 5.583822 -1.014667 -0.161156 6.359726 3.525997 2.409852 2.214940 -1.388304 2.780997 18.526015 -0.936878 1.271185 5.286663 0.000000 0.000000 0.000000 2.671011 -3.419122 -12.824876 13.010228 -21.302158 2.456989 15.543402 -22.589699 -6.189694 0.000000 0.000000 0.000000 -7.125000 0.000000 0.000000 -9.397364 36.263991 -2.040756 0.000000 0.000000 0.000000 -0.390367 -1.150304 11.124083 -15.298090 -24.559713 -3.348838 -20.500978 5.418743 9.471932 0.000000 0.000000 0.000000 7.125000 0.000000 0.000000 5.665470 40.017184 0.698456
5.087498 16.336213 -4.696167 -105.408429 -87.360213 102.162985 0.000000 0.000000 0.000000 -17.682764 5.041082 -2.888040 1.792958 8.420916 23.999947 1.452253 6.565640 -25.973952 0.003513 0.384837 1.057265 0.000000 0.000000 0.000000 21.409640 5.987545 -8.941816 -3.928673 -12.064831 35.961809 -1.897758 -7.101938 -29.376434 -0.000200 0.085173 -0.234115 2.416360 -0.156387 -1.145538 0.394989 -0.447073 5.557960 -0.976478 -0.152300 6.401765 3.487022 2.347503 2.369578 -1.365714 2.691059 18.562028 -0.928807 1.223594 5.268880 0.000000 0.000000 0.000000 2.640258 -3.446842 -12.612660 12.872184 -21.099656 2.407071 15.778513 -22.293052 -6.480905 0.000000 0.000000 0.000000 -7.125000 0.000000 0.000000 -9.245458 36.575236 -1.935954 0.000000 0.000000 0.000000 -0.373687 -1.174356 10.973665 -15.157814 -24.365494 -3.290751 -20.491154 5.662516 9.757134 0.000000 0.000000 0.000000 7.125000 0.000000 0.000000 5.715300 40.317760 0.662218
5.080415 16.334383 -4.686979 -105.136265 -87.388573 101.841755 0.000000 0.000000 0.000000 -17.734416 5.095711 -2.810487 1.789964 8.414093 23.979146 1.453634 6.545157 -25.971372 0.002917 0.348743 0.958309 0.000000 0.000000 0.000000 21.349854 5.945514 -8.882730 -3.934802 -12.073219 35.991377 -1.903570 -7.078527 -29.400132 -0.000200 0.093696 -0.257538 2.378263 -0.159732 -1.265067 0.401072 -0.454505 5.586398 -0.950119 -0.156811 6.501077 3.468721 2.268004 2.533754 -1.289712 2.562820 18.696994 -0.909128 1.159776 5.279453 0.000000 0.000000 0.000000 2.637517 -3.506968 -12.736656 12.970095 -21.243332 2.442445 15.826172 -22.386067 -6.622773 0.000000 0.000000 0.000000 -7.125000 0.000000 0.000000 -9.227170 36.723276 -1.898304 0.000000 0.000000 0.000000 -0.317125 -1.218043 11.045064 -15.245721 -24.487287 -3.327103 -20.533921 5.431165 9.498683 0.000000 0.000000 0.000000 7.125000 0.000000 0.000000 5.640624 40.048124 0.691089
5.074364 16.332695 -4.678664 -104.913521 -87.375048 101.592366 0.000000 0.000000 0.000000 -17.748081 5.105029 -2.773443 1.794595 8.424390 24.010669 1.458916 6.543212 -26.009712 0.002695 0.336277 0.923900 0.000000 0.000000 0.000000 21.332412 5.902143 -8.840053 -3.935226 -12.073736 35.993419 -1.905447 -7.045265 -29.392702 -0.000300 0.116581 -0.320269 2.403389 -0.162024 -1.355526 0.406891 -0.461741 5.595312 -0.959128 -0.158381 6.562604 3.462981 2.188982 2.652476 -1.274859 2.450270 18.728297 -0.909347 1.103153 5.266416 0.000000 0.000000 0.000000 2.621690 -3.513117 -12.905207 13.143655 -21.497268 2.505666 15.622358 -22.689459 -6.330072 0.000000 0.000000 0.000000 -7.125000 0.000000 0.000000 -9.352731 36.412017 -1.996705 0.000000 0.000000 0.000000 -0.309736 -1.188741 11.358049 -15.463557 -24.787825 -3.417904 -20.472384 5.139354 9.489916 0.000000 0.000000 0.000000 7.125000 0.000000 0.000000 5.692843 40.033764 0.699572
5.068460 16.330913 -4.673440 -105.339002 -87.298761 101.982002 0.000000 0.000000 0.000000 -17.684541 5.133586 -2.740373 1.802207 8.441300 24.062786 1.470573 6.509548 -26.074126 0.003000 0.355406 0.976659 0.000000 0.000000 0.000000 21.407466 5.933293 -8.748387 -3.928893 -12.065227 35.963141 -1.908100 -7.056613 -29.416560 -0.000207 0.101514 -0.279007 2.477945 -0.146220 -1.373746 0.422933 -0.443387 5.555694 -0.982853 -0.145927 6.531600 3.471613 2.131414 2.733085 -1.239381 2.369221 18.667356 -0.903500 1.066367 5.231788 0.000000 0.000000 0.000000 2.594621 -3.545459 -12.939734 13.156008 -21.515348 2.510187 15.713354 -22.726513 -6.413051 0.000000 0.000000 0.000000 -7.125000 0.000000 0.000000 -9.289593 36.502038 -1.962192 0.000000 0.000000 0.000000 -0.327886 -1.180620 11.382641 -15.517100 -24.861480 -3.440387 -20.417467 5.191705 9.604005 0.000000 0.000000 0.000000 7.125000 0.000000 0.000000 5.757113 40.149765 0.691014
5.057059 16.328493 -4.669256 -104.839080 -87.279178 101.470451 0.000000 0.000000 0.000000 -17.637087 5.278230 -2.734381 1.803507 8.444133 24.071463 1.481511 6.331931 -26.045890 0.003081 0.358322 0.984532 0.000000 0.000000 0.000000 21.410978 5.877915 -8.705463 -3.929596 -12.066141 35.966192 -1.919533 -6.995054 -29.454187 -0.000200 0.084691 -0.232568 2.494078 -0.167236 -1.490372 0.440944 -0.473666 5.507205 -0.975749 -0.159614 6.546226 3.461352 2.111229 2.895589 -1.194086 2.346014 18.460148 -0.889834 1.058548 5.139013 0.000000 0.000000 0.000000 2.579388 -3.562378 -13.031618 13.074424 -21.396125 2.480367 15.480113 -22.881410 -6.088616 0.000000 0.000000 0.000000 -7.125000 0.000000 0.000000 -9.434784 36.157302 -2.073918 0.000000 0.000000 0.000000 -0.387080 -1.190200 11.325537 -15.469086 -24.795445 -3.420278 -20.412672 5.290154 9.618855 0.000000 0.000000 0.000000 7.125000 0.000000 0.000000 5.763509 40.164940 0.689645
